<svg xmlns="http://www.w3.org/2000/svg" width="512" height="512" viewBox="0 0 512 512">
  <defs>
    <radialGradient id="bg" cx="0.5" cy="0.42" r="0.75">
      <stop offset="0" stop-color="#2A3F73"/>
      <stop offset="1" stop-color="#101A36"/>
    </radialGradient>
    <linearGradient id="red" x1="0" y1="0" x2="1" y2="1">
      <stop offset="0" stop-color="#FF7A7A"/>
      <stop offset="1" stop-color="#D93B2B"/>
    </linearGradient>
    <linearGradient id="teal" x1="0" y1="0" x2="1" y2="1">
      <stop offset="0" stop-color="#5BE0D6"/>
      <stop offset="1" stop-color="#249E93"/>
    </linearGradient>
    <linearGradient id="gold" x1="0" y1="0" x2="0" y2="1">
      <stop offset="0" stop-color="#FFE98A"/>
      <stop offset="1" stop-color="#FFC93C"/>
    </linearGradient>
    <filter id="sh" x="-30%" y="-30%" width="160%" height="160%">
      <feDropShadow dx="0" dy="10" stdDeviation="12" flood-color="#000" flood-opacity="0.28"/>
    </filter>
  </defs>
  <rect width="512" height="512" fill="url(#bg)"/>
  <circle cx="256" cy="250" r="196" fill="#fff" opacity="0.06"/>
  <g id="cards">
    <g transform="rotate(-18 256 400)" filter="url(#sh)">
      <rect x="171" y="130" width="170" height="250" rx="22" fill="#fff"/>
      <rect x="183" y="142" width="146" height="226" rx="14" fill="url(#teal)"/>
    </g>
    <g transform="rotate(18 256 400)" filter="url(#sh)">
      <rect x="171" y="130" width="170" height="250" rx="22" fill="#fff"/>
      <rect x="183" y="142" width="146" height="226" rx="14" fill="url(#red)"/>
    </g>
    <g filter="url(#sh)">
      <rect x="171" y="118" width="170" height="250" rx="22" fill="#fff"/>
      <rect x="183" y="130" width="146" height="226" rx="14" fill="url(#gold)"/>
      <ellipse cx="256" cy="243" rx="58" ry="92" transform="rotate(22 256 243)" fill="#fff"/>
      <path d="M232 190 h26 v82 h40 v24 h-66 z" fill="#E4572E"/>
      <path d="M199 146 h12 v30 h16 v10 h-28 z" fill="#E4572E" opacity="0.9"/>
      <path d="M313 340 h-12 v-30 h-16 v-10 h28 z" fill="#E4572E" opacity="0.9"/>
    </g>
  </g>
</svg>
